HIERARCHY
ROOT hip
{
  OFFSET 0 0 0
  CHANNELS 6 Xposition Yposition Zposition Zrotation Yrotation Xrotation
  JOINT abdomen
  {
    OFFSET 0 20.6881 -0.73152
    CHANNELS 3 Zrotation Xrotation Yrotation
    JOINT chest
    {
      OFFSET 0 11.7043 -0.48768
      CHANNELS 3 Zrotation Xrotation Yrotation
      JOINT neck
      {
        OFFSET 0 22.1894 -2.19456
        CHANNELS 3 Zrotation Xrotation Yrotation
        JOINT head
        {
          OFFSET -0.24384 7.07133 1.2192
          CHANNELS 3 Zrotation Xrotation Yrotation
          JOINT leftEye
          {
            OFFSET 4.14528 8.04674 8.04672
            CHANNELS 3 Zrotation Xrotation Yrotation
            End Site
            {
              OFFSET 1 0 0
            }
          }
          JOINT rightEye
          {
            OFFSET -3.6576 8.04674 8.04672
            CHANNELS 3 Zrotation Xrotation Yrotation
            End Site
            {
              OFFSET 1 0 0
            }
          }
        }
      }
      JOINT rCollar
      {
        OFFSET -2.68224 19.2634 -4.8768
        CHANNELS 3 Zrotation Xrotation Yrotation
        JOINT rShldr
        {
          OFFSET -8.77824 -1.95073 1.46304
          CHANNELS 3 Zrotation Xrotation Yrotation
          JOINT rForeArm
          {
            OFFSET -28.1742 -1.7115 0.48768
            CHANNELS 3 Zrotation Xrotation Yrotation
            JOINT rHand
            {
              OFFSET -22.5879 0.773209 7.07136
              CHANNELS 3 Zrotation Xrotation Yrotation
              JOINT rThumb1
              {
                OFFSET -1.2192 -0.487915 3.41376
                CHANNELS 3 Zrotation Xrotation Yrotation
                JOINT rThumb2
                {
                  OFFSET -3.37035 -0.52449 3.41376
                  CHANNELS 3 Zrotation Xrotation Yrotation
                  End Site
                  {
                    OFFSET -1.78271 -1.18214 1.43049
                  }
                }
              }
              JOINT rIndex1
              {
                OFFSET -7.75947 0.938293 5.60832
                CHANNELS 3 Zrotation Xrotation Yrotation
                JOINT rIndex2
                {
                  OFFSET -2.54057 -0.884171 1.56538
                  CHANNELS 3 Zrotation Xrotation Yrotation
                  End Site
                  {
                    OFFSET -1.62519 -0.234802 1.16502
                  }
                }
              }
              JOINT rMid1
              {
                OFFSET -8.24714 1.18213 3.41376
                CHANNELS 3 Zrotation Xrotation Yrotation
                JOINT rMid2
                {
                  OFFSET -3.10165 -0.590103 1.0647
                  CHANNELS 3 Zrotation Xrotation Yrotation
                  End Site
                  {
                    OFFSET -2.48547 -0.328903 0.83742
                  }
                }
              }
              JOINT rRing1
              {
                OFFSET -8.82822 0.546677 1.51678
                CHANNELS 3 Zrotation Xrotation Yrotation
                JOINT rRing2
                {
                  OFFSET -2.60934 -0.819778 -0.0198488
                  CHANNELS 3 Zrotation Xrotation Yrotation
                  End Site
                  {
                    OFFSET -2.33842 -0.294052 0.168128
                  }
                }
              }
              JOINT rPinky1
              {
                OFFSET -8.27202 -0.0477905 -0.4584
                CHANNELS 3 Zrotation Xrotation Yrotation
                JOINT rPinky2
                {
                  OFFSET -1.82734 -0.647385 -0.700984
                  CHANNELS 3 Zrotation Xrotation Yrotation
                  End Site
                  {
                    OFFSET -1.69225 -0.51767 -0.607171
                  }
                }
              }
            }
          }
        }
      }
      JOINT lCollar
      {
        OFFSET 2.68224 19.2634 -4.8768
        CHANNELS 3 Zrotation Xrotation Yrotation
        JOINT lShldr
        {
          OFFSET 8.77824 -1.95073 1.46304
          CHANNELS 3 Zrotation Xrotation Yrotation
          JOINT lForeArm
          {
            OFFSET 28.1742 -1.7115 0.48768
            CHANNELS 3 Zrotation Xrotation Yrotation
            JOINT lHand
            {
              OFFSET 22.5879 0.773209 7.07136
              CHANNELS 3 Zrotation Xrotation Yrotation
              JOINT lThumb1
              {
                OFFSET 1.2192 -0.487915 3.41376
                CHANNELS 3 Zrotation Xrotation Yrotation
                JOINT lThumb2
                {
                  OFFSET 3.37035 -0.52449 3.41376
                  CHANNELS 3 Zrotation Xrotation Yrotation
                  End Site
                  {
                    OFFSET 1.78271 -1.18214 1.43049
                  }
                }
              }
              JOINT lIndex1
              {
                OFFSET 7.75947 0.938293 5.60832
                CHANNELS 3 Zrotation Xrotation Yrotation
                JOINT lIndex2
                {
                  OFFSET 2.54057 -0.884171 1.56538
                  CHANNELS 3 Zrotation Xrotation Yrotation
                  End Site
                  {
                    OFFSET 1.62519 -0.234802 1.16502
                  }
                }
              }
              JOINT lMid1
              {
                OFFSET 8.24714 1.18213 3.41376
                CHANNELS 3 Zrotation Xrotation Yrotation
                JOINT lMid2
                {
                  OFFSET 3.10165 -0.590103 1.0647
                  CHANNELS 3 Zrotation Xrotation Yrotation
                  End Site
                  {
                    OFFSET 2.48547 -0.328903 0.83742
                  }
                }
              }
              JOINT lRing1
              {
                OFFSET 8.82822 0.546677 1.51678
                CHANNELS 3 Zrotation Xrotation Yrotation
                JOINT lRing2
                {
                  OFFSET 2.60934 -0.819778 -0.0198488
                  CHANNELS 3 Zrotation Xrotation Yrotation
                  End Site
                  {
                    OFFSET 2.33842 -0.294052 0.168128
                  }
                }
              }
              JOINT lPinky1
              {
                OFFSET 8.27202 -0.0477905 -0.4584
                CHANNELS 3 Zrotation Xrotation Yrotation
                JOINT lPinky2
                {
                  OFFSET 1.82734 -0.647385 -0.700984
                  CHANNELS 3 Zrotation Xrotation Yrotation
                  End Site
                  {
                    OFFSET 1.69225 -0.51767 -0.607171
                  }
                }
              }
            }
          }
        }
      }
    }
  }
  JOINT rButtock
  {
    OFFSET -8.77824 4.35084 1.2192
    CHANNELS 3 Zrotation Xrotation Yrotation
    JOINT rThigh
    {
      OFFSET 0 -1.70687 -2.19456
      CHANNELS 3 Zrotation Xrotation Yrotation
      JOINT rShin
      {
        OFFSET 0 -36.8199 0.73152
        CHANNELS 3 Zrotation Xrotation Yrotation
        JOINT rFoot
        {
          OFFSET 0.73152 -45.1104 -5.12064
          CHANNELS 3 Zrotation Xrotation Yrotation
          End Site
          {
            OFFSET -1.1221 -3.69964 12.103
          }
        }
      }
    }
  }
  JOINT lButtock
  {
    OFFSET 8.77824 4.35084 1.2192
    CHANNELS 3 Zrotation Xrotation Yrotation
    JOINT lThigh
    {
      OFFSET 0 -1.70687 -2.19456
      CHANNELS 3 Zrotation Xrotation Yrotation
      JOINT lShin
      {
        OFFSET 0 -36.8199 0.73152
        CHANNELS 3 Zrotation Xrotation Yrotation
        JOINT lFoot
        {
          OFFSET -0.73152 -45.1104 -5.12064
          CHANNELS 3 Zrotation Xrotation Yrotation
          End Site
          {
            OFFSET 1.1221 -3.69964 12.103
          }
        }
      }
    }
  }
}
MOTION
Frames:	6
Frame Time:	0.00833333
-72.295 64.7164 -11.2739 -11.0103 120.494 17.4704 -13.8956 40.6174 2.33644 5.00476 -4.05856 0.779564 -12.8186 17.4967 -14.061 67.8894 -65.8866 14.8857 -0.0 0.0 0.0 -0.0 0.0 0.0 -1.55147e-13 3.11425e-13 2.76923e-13 71.487 6.07275 11.9987 -23.0028 -17.3399 46.601 0.0133887 -2.67092 -0.376228 -3.72664e-09 -3.51033e-09 2.76555e-09 -6.47068e-09 -6.08338e-09 4.77e-09 -3.72663e-09 -3.51033e-09 2.76554e-09 7.73091 5.47488 0.417314 -3.72664e-09 -3.51034e-09 2.76555e-09 2.90554 0.965183 0.102902 -3.72663e-09 -3.51034e-09 2.76555e-09 10.2786 0.731801 0.0259123 -3.72664e-09 -3.51034e-09 2.76555e-09 2.22167 -0.733487 -0.20892 -1.55308e-13 3.11455e-13 2.76562e-13 -60.7894 -12.9733 -33.0234 26.8424 -25.8015 -60.2504 9.64723 -62.8696 15.8097 -1.39e-09 -5.87902e-09 -3.95379e-10 -2.3488e-09 -1.01055e-08 -7.71329e-10 -1.39e-09 -5.87902e-09 -3.95371e-10 -7.73091 5.47488 -0.417314 -1.39e-09 -5.87902e-09 -3.95372e-10 -2.90554 0.965183 -0.102902 -1.39e-09 -5.87902e-09 -3.95378e-10 -10.2786 0.731801 -0.0259123 -1.38999e-09 -5.87902e-09 -3.95386e-10 -2.22167 -0.733487 0.20892 -2.03217e-16 0.0 -3.88251e-19 -59.2942 -72.2789 -73.0073 -174.558 76.1577 175.243 -4.07248 -4.62266 -14.9979 2.03217e-16 0.0 3.88251e-19 12.6754 -24.5234 17.3496 0.710901 59.3762 -2.61244 -0.32067 -11.7232 -5.73725
-69.681 64.9039 -13.2631 -12.2134 119.741 16.8552 -13.6097 40.0447 2.40309 4.45692 -4.1828 0.841538 -12.9685 17.5359 -13.7765 65.6157 -65.7872 13.8019 -0.0 0.0 0.0 -0.0 0.0 0.0 -3.21139e-13 5.21593e-13 4.32754e-13 71.9937 4.6766 10.3573 -23.0129 -17.358 46.6231 -0.0406604 -5.74564 -0.810242 -4.00886e-09 -2.41929e-09 3.70098e-09 -6.95658e-09 -4.19418e-09 6.3916e-09 -4.00885e-09 -2.41929e-09 3.70097e-09 7.73091 5.47488 0.417314 -4.00886e-09 -2.4193e-09 3.70098e-09 2.90554 0.965183 0.102902 -4.00885e-09 -2.4193e-09 3.70098e-09 10.2786 0.731801 0.0259123 -4.00886e-09 -2.4193e-09 3.70099e-09 2.22167 -0.733487 -0.20892 -3.21305e-13 5.21629e-13 4.32357e-13 -61.3649 -13.6737 -28.9423 27.1411 -26.8208 -62.1883 12.2696 -66.3138 18.6854 -1.87423e-09 -5.79619e-09 -1.0006e-10 -3.19195e-09 -1.00149e-08 -2.77694e-10 -1.87423e-09 -5.79619e-09 -1.00054e-10 -7.73091 5.47488 -0.417314 -1.87423e-09 -5.79619e-09 -1.00054e-10 -2.90554 0.965183 -0.102902 -1.87422e-09 -5.79619e-09 -1.0006e-10 -10.2786 0.731801 -0.0259123 -1.87422e-09 -5.79619e-09 -1.0007e-10 -2.22167 -0.733487 0.20892 -2.03217e-16 0.0 -3.88251e-19 -64.9257 -74.5413 -79.7546 -173.305 79.4076 174.059 -4.02633 -5.14886 -14.5591 2.03217e-16 0.0 3.88251e-19 10.7236 -20.9297 16.0552 0.479606 55.8274 -2.5583 0.0140434 -8.81565 -6.09517
-67.0229 65.078 -15.3277 -13.722 119.035 16.0126 -13.055 39.3788 2.35465 3.84616 -4.2532 0.88459 -13.1338 17.468 -13.546 63.0289 -65.6091 12.358 -0.0 0.0 0.0 -0.0 0.0 0.0 -2.95156e-13 4.61113e-13 3.7562e-13 72.433 3.35645 8.75079 -23.0368 -17.398 46.6927 -0.0899628 -8.14752 -1.15214 -2.85974e-09 -7.89465e-10 2.70476e-09 -4.95704e-09 -1.37151e-09 4.6771e-09 -2.85973e-09 -7.89469e-10 2.70475e-09 7.73091 5.47488 0.417314 -2.85974e-09 -7.89472e-10 2.70476e-09 2.90554 0.965183 0.102902 -2.85974e-09 -7.89473e-10 2.70476e-09 10.2786 0.731801 0.0259123 -2.85974e-09 -7.89472e-10 2.70477e-09 2.22167 -0.733487 -0.20892 -2.95301e-13 4.61148e-13 3.75217e-13 -61.8946 -14.2779 -24.958 27.2999 -27.4261 -63.378 13.542 -67.6195 20.0492 -1.10117e-09 -2.1187e-09 6.38235e-11 -1.87907e-09 -3.69908e-09 5.20889e-11 -1.10117e-09 -2.11871e-09 6.383e-11 -7.73091 5.47488 -0.417314 -1.10117e-09 -2.11871e-09 6.38284e-11 -2.90554 0.965183 -0.102902 -1.10117e-09 -2.11871e-09 6.38225e-11 -10.2786 0.731801 -0.0259123 -1.10116e-09 -2.1187e-09 6.38124e-11 -2.22167 -0.733487 0.20892 -2.03217e-16 0.0 -3.88251e-19 -70.4315 -76.1085 -86.5606 -170.188 83.2176 170.998 -3.94326 -6.26844 -13.5232 2.03217e-16 0.0 3.88251e-19 8.81003 -17.383 14.2674 0.297747 51.8001 -2.48857 0.490814 -5.02347 -6.20556
-64.2443 65.4112 -17.3512 -14.9161 118.375 15.4864 -12.2689 38.6161 2.2138 3.17225 -4.28867 0.914256 -13.3005 17.3094 -13.3485 60.1264 -65.35 10.6039 -0.0 0.0 0.0 -0.0 0.0 0.0 -1.64132e-13 2.27395e-13 1.87556e-13 72.8561 2.12502 7.15754 -23.0867 -17.4813 46.8383 -0.134327 -10.2272 -1.45166 -6.4484e-10 1.35476e-09 5.10138e-10 -1.10725e-09 2.34223e-09 8.92689e-10 -6.44833e-10 1.35475e-09 5.10129e-10 7.73091 5.47488 0.417314 -6.44837e-10 1.35475e-09 5.10136e-10 2.90554 0.965183 0.102902 -6.44838e-10 1.35475e-09 5.10138e-10 10.2786 0.731801 0.0259123 -6.44844e-10 1.35475e-09 5.10145e-10 2.22167 -0.733487 -0.20892 -1.64237e-13 2.27425e-13 1.87168e-13 -62.4347 -14.6531 -20.9643 27.4031 -27.8366 -64.0541 13.4701 -67.5375 19.9714 4.48419e-10 3.97003e-09 1.68694e-10 7.6385e-10 6.78671e-09 3.20526e-10 4.48419e-10 3.97003e-09 1.68702e-10 -7.73091 5.47488 -0.417314 4.48421e-10 3.97003e-09 1.68697e-10 -2.90554 0.965183 -0.102902 4.48417e-10 3.97003e-09 1.68692e-10 -10.2786 0.731801 -0.0259123 4.48425e-10 3.97004e-09 1.68682e-10 -2.22167 -0.733487 0.20892 -2.03217e-16 0.0 -3.88251e-19 -75.0746 -77.21 -92.598 -154.558 87.5087 155.417 -3.76296 -7.81843 -12.0426 2.03217e-16 0.0 3.88251e-19 7.02816 -13.8105 12.1319 0.164655 47.3512 -2.42376 1.05553 -0.490349 -6.17611
-61.5368 65.6304 -19.3343 -16.3237 117.827 14.6686 -11.5022 37.8602 2.07473 2.54503 -4.28596 0.938171 -13.4125 17.1853 -13.192 57.373 -65.1389 8.90284 -0.0 0.0 0.0 -0.0 0.0 0.0 -1.54169e-14 -1.54991e-15 -1.94942e-15 73.2328 0.993175 5.60042 -23.152 -17.5913 47.03 -0.177272 -11.9625 -1.70521 1.60564e-09 3.2181e-09 -1.74133e-09 2.80251e-09 5.56903e-09 -2.99089e-09 1.60565e-09 3.2181e-09 -1.74134e-09 7.73091 5.47488 0.417314 1.60564e-09 3.2181e-09 -1.74133e-09 2.90554 0.965183 0.102902 1.60564e-09 3.2181e-09 -1.74133e-09 10.2786 0.731801 0.0259123 1.60563e-09 3.2181e-09 -1.74132e-09 2.22167 -0.733487 -0.20892 -1.5484e-14 -1.53095e-15 -2.31553e-15 -63.1214 -14.991 -17.013 27.5065 -28.2401 -64.5758 13.1221 -67.2173 19.6038 2.04797e-09 9.89212e-09 2.57174e-10 3.49295e-09 1.6993e-08 5.61011e-10 2.04797e-09 9.89212e-09 2.57182e-10 -7.73091 5.47488 -0.417314 2.04797e-09 9.89213e-09 2.57175e-10 -2.90554 0.965183 -0.102902 2.04797e-09 9.89213e-09 2.57171e-10 -10.2786 0.731801 -0.0259123 2.04797e-09 9.89213e-09 2.57161e-10 -2.22167 -0.733487 0.20892 -2.03217e-16 0.0 -3.88251e-19 -78.4823 -77.9382 -97.4012 -22.794 87.4678 23.6843 -3.425 -9.38596 -10.2764 2.03217e-16 0.0 3.88251e-19 5.43576 -10.4309 9.91663 0.0734042 43.2089 -2.37253 1.57835 3.8712 -6.00139
-58.7159 65.9053 -21.3569 -18.2071 117.597 13.0104 -10.9985 37.215 2.02699 2.07436 -4.2418 0.963973 -13.415 17.2212 -13.0839 55.1839 -65.1204 7.57365 -0.0 0.0 0.0 -0.0 0.0 0.0 6.36364e-14 -4.77083e-14 -6.34123e-14 73.5356 -0.028483 4.10292 -23.223 -17.7119 47.2378 -0.223046 -13.3309 -1.90845 2.86149e-09 4.00531e-09 -2.90807e-09 4.98194e-09 6.93087e-09 -5.0029e-09 2.8615e-09 4.00531e-09 -2.90808e-09 7.73091 5.47488 0.417314 2.86149e-09 4.00531e-09 -2.90807e-09 2.90554 0.965183 0.102902 2.86149e-09 4.00531e-09 -2.90807e-09 10.2786 0.731801 0.0259123 2.86149e-09 4.00531e-09 -2.90806e-09 2.22167 -0.733487 -0.20892 6.35899e-14 -4.77079e-14 -6.37602e-14 -64.0338 -15.5065 -13.1438 27.6425 -28.7902 -65.3213 13.6176 -67.8046 20.1491 2.97092e-09 1.30697e-08 3.71883e-10 5.06436e-09 2.24703e-08 8.06935e-10 2.97092e-09 1.30697e-08 3.71893e-10 -7.73091 5.47488 -0.417314 2.97092e-09 1.30697e-08 3.71883e-10 -2.90554 0.965183 -0.102902 2.97091e-09 1.30697e-08 3.7188e-10 -10.2786 0.731801 -0.0259123 2.97092e-09 1.30697e-08 3.7187e-10 -2.22167 -0.733487 0.20892 -2.03217e-16 0.0 -3.88251e-19 -80.4435 -78.3587 -100.674 -7.69175 83.3165 8.58802 -2.93104 -10.5449 -8.38175 2.03217e-16 0.0 3.88251e-19 3.98683 -7.49511 7.85758 0.011529 40.1011 -2.33127 1.93327 7.14796 -5.64295
